HIERARCHY
ROOT Hips
{
	OFFSET 0.00000 0.00000 0.00000
	CHANNELS 6 Xposition Yposition Zposition Zrotation Yrotation Xrotation 
	JOINT LHipJoint
	{
		OFFSET 0 0 0
		CHANNELS 3 Zrotation Yrotation Xrotation
		JOINT LeftUpLeg
		{
			OFFSET 1.75344 -1.53157 0.77399
			CHANNELS 3 Zrotation Yrotation Xrotation
			JOINT LeftLeg
			{
				OFFSET 2.25415 -6.19323 0.00000
				CHANNELS 3 Zrotation Yrotation Xrotation
				JOINT LeftFoot
				{
					OFFSET 2.30342 -6.32861 0.00000
					CHANNELS 3 Zrotation Yrotation Xrotation
					JOINT LeftToeBase
					{
						OFFSET 0.10958 -0.30108 1.49206
						CHANNELS 3 Zrotation Yrotation Xrotation
						End Site
						{
							OFFSET 0.00000 -0.00000 0.77783
						}
					}
				}
			}
		}
	}
	JOINT RHipJoint
	{
		OFFSET 0 0 0
		CHANNELS 3 Zrotation Yrotation Xrotation
		JOINT RightUpLeg
		{
			OFFSET -1.81912 -1.53156 0.77399
			CHANNELS 3 Zrotation Yrotation Xrotation
			JOINT RightLeg
			{
				OFFSET -2.22882 -6.12365 0.00000
				CHANNELS 3 Zrotation Yrotation Xrotation
				JOINT RightFoot
				{
					OFFSET -2.21943 -6.09785 0.00000
					CHANNELS 3 Zrotation Yrotation Xrotation
					JOINT RightToeBase
					{
						OFFSET -0.18931 -0.52012 1.59379
						CHANNELS 3 Zrotation Yrotation Xrotation
						End Site
						{
							OFFSET -0.00000 -0.00000 0.84686
						}
					}
				}
			}
		}
	}
	JOINT LowerBack
	{
		OFFSET 0 0 0
		CHANNELS 3 Zrotation Yrotation Xrotation
		JOINT Spine
		{
			OFFSET -0.00200 1.66634 -0.14248
			CHANNELS 3 Zrotation Yrotation Xrotation
			JOINT Spine1
			{
				OFFSET -0.00875 1.64542 0.09514
				CHANNELS 3 Zrotation Yrotation Xrotation
				JOINT Neck
				{
					OFFSET 0 0 0
					CHANNELS 3 Zrotation Yrotation Xrotation
					JOINT Neck1
					{
						OFFSET 0.02257 1.59605 0.00839
						CHANNELS 3 Zrotation Yrotation Xrotation
						JOINT Head
						{
							OFFSET -0.10214 1.57530 -0.23335
							CHANNELS 3 Zrotation Yrotation Xrotation
							End Site
							{
								OFFSET -0.03588 1.60717 -0.08062
							}
						}
					}
				}
				JOINT LeftShoulder
				{
					OFFSET 0 0 0
					CHANNELS 3 Zrotation Yrotation Xrotation
					JOINT LeftArm
					{
						OFFSET 2.54983 1.10186 0.40078
						CHANNELS 3 Zrotation Yrotation Xrotation
						JOINT LeftForeArm
						{
							OFFSET 4.28840 -0.00000 0.00000
							CHANNELS 3 Zrotation Yrotation Xrotation
							JOINT LeftHand
							{
								OFFSET 3.06552 -0.00000 -0.00000
								CHANNELS 3 Zrotation Yrotation Xrotation
								JOINT LeftFingerBase
								{
									OFFSET 0 0 0
									CHANNELS 3 Zrotation Yrotation Xrotation
									JOINT LeftHandIndex1
									{
										OFFSET 0.75304 -0.00000 0.00000
										CHANNELS 3 Zrotation Yrotation Xrotation
										End Site
										{
											OFFSET 0.60712 -0.00000 0.00000
										}
									}
								}
								JOINT LThumb
								{
									OFFSET 0 0 0
									CHANNELS 3 Zrotation Yrotation Xrotation
									End Site
									{
										OFFSET 0.61639 -0.00000 0.61639
									}
								}
							}
						}
					}
				}
				JOINT RightShoulder
				{
					OFFSET 0 0 0
					CHANNELS 3 Zrotation Yrotation Xrotation
					JOINT RightArm
					{
						OFFSET -2.60909 1.35448 0.21802
						CHANNELS 3 Zrotation Yrotation Xrotation
						JOINT RightForeArm
						{
							OFFSET -4.52172 -0.00000 -0.00000
							CHANNELS 3 Zrotation Yrotation Xrotation
							JOINT RightHand
							{
								OFFSET -2.89140 -0.00000 0.00000
								CHANNELS 3 Zrotation Yrotation Xrotation
								JOINT RightFingerBase
								{
									OFFSET 0 0 0
									CHANNELS 3 Zrotation Yrotation Xrotation
									JOINT RightHandIndex1
									{
										OFFSET -0.68054 -0.00000 0.00000
										CHANNELS 3 Zrotation Yrotation Xrotation
										End Site
										{
											OFFSET -0.54867 -0.00000 0.00000
										}
									}
								}
								JOINT RThumb
								{
									OFFSET 0 0 0
									CHANNELS 3 Zrotation Yrotation Xrotation
									End Site
									{
										OFFSET -0.55705 -0.00000 0.55705
									}
								}
							}
						}
					}
				}
			}
		}
	}
}
MOTION
Frames: 8
Frame Time: .0083333
8.9059 15.0043 41.7859 0 0 0 0 0 0 -21 0 0 0 0 0 0 0 0 0 0 0 0 0 0 21 0 0 0 0 0 0 0 0 0 0 0 0 0 0 0 0 0 0 0 0 0 0 -16 0 0 21 0 0 11 0 0 0 -8 0 0 0 0 0 0 0 0 0 0 0 0 0 0 0 0 0 0 0 0 8 0 0 0 0 0 0 0 0 0 0 0 0 0 0 0 0 0
8.9059 15.0043 41.7859 179.3940 -15.8147 179.1680 0.0000 0.0000 0.0000 -27.3723 -27.5165 -0.3074 3.2094 11.0266 32.3695 2.0459 1.1423 -27.4867 1.5649 -7.8940 -22.3926 0.0000 0.0000 0.0000 28.1670 14.7040 1.3683 -2.7131 -10.2155 29.6775 -1.6107 -22.1940 -40.1094 -0.4691 -4.3928 12.1845 2.1877 0.9947 7.2646 0.7687 1.5772 -3.0743 -0.6317 0.6762 -7.2702 6.7637 15.7281 -2.3251 -4.8620 21.1848 13.5441 -1.1483 10.2812 5.7267 -0.0000 -0.0000 0.0000 -88.3915 8.7833 31.2057 23.6281 -34.7685 -7.4934 -0.0000 0.0000 -2.7918 -50.5200 -9.7427 11.6089 -7.1250 0.0000 -0.0000 -41.7716 5.6500 57.2820 -0.0000 -0.0000 0.0000 82.7254 -13.3607 38.6822 -21.4418 32.3405 -6.2846 0.0000 -0.0000 -11.8657 28.0883 -59.8651 -24.7761 7.1250 -0.0000 -0.0000 101.0466 -63.2893 -72.8836
8.9161 15.0156 41.7728 179.6170 -15.5506 179.5850 0.0000 0.0000 0.0000 -26.6711 -27.0908 -1.0879 3.1969 11.0072 32.3043 1.9932 1.0990 -27.1187 1.6767 -8.1574 -23.1931 0.0000 0.0000 0.0000 28.4004 15.2037 1.1399 -2.6788 -10.1560 29.4835 -1.5770 -22.2710 -40.0285 -0.4502 -4.3048 11.9357 2.2584 1.2155 6.6317 0.6955 1.8519 -3.2340 -0.7702 0.8048 -7.0629 7.0312 15.6183 -2.1018 -4.7215 21.0031 13.3353 -1.1847 10.2287 5.6266 0.0000 0.0000 0.0000 -87.8746 9.2162 32.9545 23.1047 -34.2031 -7.1971 -0.0000 -0.0000 0.2850 -42.9774 -15.4455 13.9366 -7.1250 0.0000 -0.0000 -39.5910 7.6615 48.2647 0.0000 0.0000 0.0000 83.0788 -13.8095 39.7895 -20.6731 31.4448 -5.8785 0.0000 -0.0000 -7.0193 24.2655 -56.8210 -20.6713 7.1250 -0.0000 -0.0000 93.6336 -64.1602 -65.1495
8.9241 15.0257 41.7630 179.5990 -15.3452 180.0080 0.0000 0.0000 0.0000 -26.4343 -27.0860 -1.4869 3.1690 10.9638 32.1578 1.9842 1.0955 -27.0571 1.6557 -8.1088 -23.0450 0.0000 0.0000 0.0000 28.3328 15.5227 0.8137 -2.6737 -10.1471 29.4545 -1.5585 -22.2756 -39.9467 -0.4406 -4.2591 11.8067 2.1413 1.4273 6.1123 0.5559 2.0976 -3.3868 -0.8681 0.9265 -6.9169 7.4132 15.5070 -2.0836 -4.6153 20.8182 13.4883 -1.2114 10.1605 5.6896 -0.0000 -0.0000 0.0000 -87.4670 9.5841 34.4261 22.5153 -33.5545 -6.8685 -0.0000 -0.0000 3.6537 -34.8493 -21.3401 14.2186 -7.1250 0.0000 -0.0000 -35.9610 6.3011 41.4066 -0.0000 -0.0000 0.0000 83.3701 -14.3568 41.3734 -20.0268 30.6747 -5.5450 0.0000 -0.0000 -3.4121 15.9913 -54.1045 -13.0700 7.1250 -0.0000 -0.0000 83.9440 -66.2765 -57.5066
8.9319 15.0346 41.7556 179.4470 -15.1572 180.4570 0.0000 0.0000 0.0000 -26.3559 -27.1362 -1.8528 3.1445 10.9254 32.0287 2.0043 0.9756 -27.1481 1.6073 -7.9952 -22.6995 0.0000 0.0000 0.0000 28.1426 15.9200 0.5567 -2.6600 -10.1232 29.3766 -1.5456 -22.3074 -39.9180 -0.4357 -4.2358 11.7411 1.9081 1.6363 5.6261 0.3738 2.3292 -3.5418 -0.9415 1.0453 -6.7953 7.8485 15.3800 -2.0260 -4.5907 20.6191 13.6381 -1.2726 10.0833 5.7584 -0.0000 -0.0000 0.0000 -87.0295 9.9771 35.9023 22.0074 -32.9854 -6.5899 -0.0000 -0.0000 7.0007 -26.2164 -26.5493 12.4126 -7.1250 0.0000 -0.0000 -31.5352 3.6571 35.4875 -0.0000 -0.0000 0.0000 83.6326 -14.9581 42.4431 -19.5996 30.1569 -5.3287 0.0000 0.0000 1.1452 12.0564 -52.7127 -9.6442 7.1250 -0.0000 -0.0000 78.7076 -67.1841 -53.4996
8.9420 15.0414 41.7486 179.4030 -14.9650 180.8720 0.0000 0.0000 0.0000 -26.1488 -27.1859 -2.2342 3.1223 10.8905 31.9115 2.0135 0.9422 -27.1982 1.6789 -8.1624 -23.2086 0.0000 0.0000 0.0000 28.1015 16.4055 0.3167 -2.6549 -10.1142 29.3472 -1.5191 -22.4633 -39.9505 -0.4307 -4.2115 11.6725 1.7462 1.8534 5.1492 0.2169 2.5796 -3.7044 -1.0277 1.1696 -6.6850 8.2860 15.2362 -1.8965 -4.6121 20.4041 13.6737 -1.3600 10.0004 5.7828 0.0000 0.0000 0.0000 -86.5173 10.3281 37.4766 21.5049 -32.4129 -6.3184 -0.0000 -0.0000 10.3690 -16.4432 -30.6738 8.5623 -7.1250 0.0000 -0.0000 -26.4232 0.8357 29.3762 0.0000 0.0000 0.0000 83.9134 -15.6783 44.1715 -19.1591 29.6159 -5.1092 0.0000 0.0000 5.0923 2.8685 -51.2523 -2.2379 7.1250 -0.0000 -0.0000 69.6879 -69.7622 -48.4135
8.9609 15.0546 41.7318 179.4060 -14.6123 181.6090 0.0000 0.0000 0.0000 -25.6744 -27.2372 -3.0152 3.1076 10.8672 31.8334 2.0177 1.0889 -27.2790 2.0130 -8.8931 -25.4615 0.0000 0.0000 0.0000 28.0659 17.1386 -0.1849 -2.6468 -10.1000 29.3011 -1.4347 -22.7296 -39.8252 -0.3916 -4.0182 11.1279 1.4888 2.2581 4.2279 -0.0654 3.0501 -4.0130 -1.1933 1.4000 -6.4652 9.2322 14.9499 -1.5214 -4.7540 19.9925 13.6330 -1.5852 9.8453 5.7934 -0.0000 -0.0000 0.0000 -85.4688 11.0625 40.5756 20.6504 -31.4180 -5.8666 -0.0000 -0.0000 16.9794 4.0491 -33.9312 -2.2628 -7.1250 0.0000 -0.0000 -15.6323 -2.9217 17.0427 -0.0000 -0.0000 0.0000 84.5031 -16.8555 46.6267 -18.4267 28.7001 -4.7524 0.0000 0.0000 13.8937 -9.0902 -51.8564 7.1720 7.1250 -0.0000 -0.0000 64.1782 -74.2486 -48.7124
8.9622 15.0538 41.7319 179.4020 -14.6173 181.6180 0.0000 0.0000 0.0000 -25.6765 -27.2894 -3.0139 3.1097 10.8706 31.8446 2.0179 1.0563 -27.2687 2.1729 -9.2173 -26.4774 0.0000 0.0000 0.0000 28.0344 17.0303 -0.2072 -2.6306 -10.0717 29.2091 -1.3770 -22.8085 -39.6342 -0.3591 -3.8497 10.6543 1.4482 2.2271 4.2110 -0.0059 3.0074 -4.0364 -1.1047 1.3813 -6.4867 9.1105 14.9882 -1.3564 -4.7706 20.0604 13.5081 -1.5873 9.8766 5.7210 0.0000 0.0000 0.0000 -85.5273 11.2161 40.6596 20.6440 -31.4105 -5.8633 -0.0000 -0.0000 17.2144 4.9548 -33.8776 -2.7667 -7.1250 0.0000 -0.0000 -15.1404 -2.9672 16.4779 0.0000 0.0000 0.0000 84.3298 -16.9050 46.9035 -18.4363 28.7122 -4.7570 0.0000 0.0000 13.0610 -10.7529 -51.4584 8.4488 7.1250 -0.0000 -0.0000 61.8664 -74.7240 -47.1806
